ffmpeg version N-102852-g758e2da289 Copyright (c) 2000-2021 the FFmpeg developers
  built with gcc 7 (Ubuntu 7.5.0-3ubuntu1~18.04)
  configuration: --prefix=/home/aleksandr/ffmpeg_release_build --pkg-config-flags=--static --extra-cflags=-I/home/aleksandr/ffmpeg_release_build/include --extra-ldflags=-L/home/aleksandr/ffmpeg_release_build/lib --extra-libs='-lpthread -lm' --bindir=/home/aleksandr/bin_release --enable-gpl --enable-libass --enable-libfdk-aac --enable-libfreetype --enable-libmp3lame --enable-libopus --enable-libtheora --enable-libvorbis --enable-libvpx --enable-libx264 --enable-libx265 --enable-nonfree
  libavutil      57.  0.100 / 57.  0.100
  libavcodec     59.  3.101 / 59.  3.101
  libavformat    59.  4.100 / 59.  4.100
  libavdevice    59.  0.100 / 59.  0.100
  libavfilter     8.  0.103 /  8.  0.103
  libswscale      6.  0.100 /  6.  0.100
  libswresample   4.  0.100 /  4.  0.100
  libpostproc    56.  0.100 / 56.  0.100
Input #0, matroska,webm, from '../.././Samples/29_VP8_1280x720_30_068fps.webm':
  Metadata:
    encoder         : libwebm-0.2.1.0
  Duration: 00:00:16.67, start: 0.000000, bitrate: 873 kb/s
  Stream #0:0(eng): Video: vp8, yuv420p(progressive), 1280x720, SAR 1:1 DAR 16:9, 30 fps, 30 tbr, 1k tbn (default)
Stream mapping:
  Stream #0:0 -> #0:0 (vp8 (native) -> h264 (libx264))
Press [q] to stop, [?] for help
[libx264 @ 0x5588816fab40] using SAR=1/1
[libx264 @ 0x5588816fab40] using cpu capabilities: MMX2 SSE2Fast SSSE3 SSE4.2 AVX FMA3 BMI2 AVX2
[libx264 @ 0x5588816fab40] profile High, level 3.1
[libx264 @ 0x5588816fab40] 264 - core 152 r2854 e9a5903 - H.264/MPEG-4 AVC codec - Copyleft 2003-2017 - http://www.videolan.org/x264.html - options: cabac=1 ref=3 deblock=1:0:0 analyse=0x3:0x113 me=hex subme=7 psy=1 psy_rd=1.00:0.00 mixed_ref=1 me_range=16 chroma_me=1 trellis=1 8x8dct=1 cqm=0 deadzone=21,11 fast_pskip=1 chroma_qp_offset=-2 threads=6 lookahead_threads=1 sliced_threads=0 nr=0 decimate=1 interlaced=0 bluray_compat=0 constrained_intra=0 bframes=3 b_pyramid=2 b_adapt=1 b_bias=0 direct=1 weightb=1 open_gop=0 weightp=2 keyint=250 keyint_min=25 scenecut=40 intra_refresh=0 rc_lookahead=40 rc=crf mbtree=1 crf=23.0 qcomp=0.60 qpmin=0 qpmax=69 qpstep=4 ip_ratio=1.40 aq=1:1.00
Output #0, mov, to '/home/aleksandr/Debug-release_tests/Release/Samples/29_VP8_1280x720_30_068fps.webm_tc/output_tc10.mov':
  Metadata:
    encoder         : Lavf59.4.100
  Stream #0:0(eng): Video: h264 (avc1 / 0x31637661), yuv420p(tv, bt470bg/unknown/unknown, progressive), 1280x720 [SAR 1:1 DAR 16:9], q=2-31, 30 fps, 15360 tbn (default)
    Metadata:
      encoder         : Lavc59.3.101 libx264
    Side data:
      cpb: bitrate max/min/avg: 0/0/0 buffer size: 0 vbv_delay: N/A
frame=    1 fps=0.0 q=0.0 size=       0kB time=00:00:00.00 bitrate=N/A speed=   0x    frame=   59 fps=0.0 q=29.0 size=       0kB time=00:00:00.20 bitrate=   1.4kbits/s speed=0.339x    frame=   81 fps= 73 q=29.0 size=     512kB time=00:00:00.93 bitrate=4493.9kbits/s speed=0.845x    frame=   98 fps= 60 q=29.0 size=     768kB time=00:00:01.50 bitrate=4194.3kbits/s speed=0.912x    frame=  112 fps= 52 q=29.0 size=     768kB time=00:00:01.96 bitrate=3199.1kbits/s speed=0.912x    frame=  127 fps= 48 q=29.0 size=    1024kB time=00:00:02.46 bitrate=3400.8kbits/s speed=0.927x    frame=  143 fps= 45 q=29.0 size=    1536kB time=00:00:03.00 bitrate=4194.3kbits/s speed=0.942x    frame=  163 fps= 44 q=29.0 size=    1792kB time=00:00:03.66 bitrate=4003.7kbits/s speed=0.991x    frame=  184 fps= 43 q=29.0 size=    2048kB time=00:00:04.36 bitrate=3842.1kbits/s speed=1.02x    frame=  206 fps= 43 q=29.0 size=    2560kB time=00:00:05.10 bitrate=4112.1kbits/s speed=1.07x    frame=  222 fps= 42 q=29.0 size=    2816kB time=00:00:05.63 bitrate=4095.0kbits/s speed=1.07x    frame=  243 fps= 41 q=29.0 size=    3072kB time=00:00:06.33 bitrate=3973.6kbits/s speed=1.08x    frame=  257 fps= 40 q=29.0 size=    3328kB time=00:00:06.80 bitrate=4009.3kbits/s speed=1.07x    frame=  273 fps= 40 q=29.0 size=    3584kB time=00:00:07.33 bitrate=4003.7kbits/s speed=1.06x    frame=  289 fps= 39 q=29.0 size=    3840kB time=00:00:07.86 bitrate=3998.8kbits/s speed=1.06x    frame=  312 fps= 39 q=29.0 size=    4096kB time=00:00:08.63 bitrate=3886.6kbits/s speed=1.09x    frame=  335 fps= 39 q=29.0 size=    4608kB time=00:00:09.40 bitrate=4015.8kbits/s speed=1.11x    frame=  357 fps= 39 q=29.0 size=    4864kB time=00:00:10.13 bitrate=3932.2kbits/s speed=1.12x    frame=  378 fps= 39 q=29.0 size=    5120kB time=00:00:10.83 bitrate=3871.7kbits/s speed=1.13x    frame=  398 fps= 39 q=29.0 size=    5632kB time=00:00:11.50 bitrate=4011.9kbits/s speed=1.14x    frame=  416 fps= 39 q=29.0 size=    5888kB time=00:00:12.10 bitrate=3986.3kbits/s speed=1.14x    frame=  434 fps= 39 q=29.0 size=    6144kB time=00:00:12.70 bitrate=3963.1kbits/s speed=1.14x    frame=  455 fps= 39 q=29.0 size=    6656kB time=00:00:13.40 bitrate=4069.1kbits/s speed=1.15x    frame=  473 fps= 39 q=29.0 size=    6912kB time=00:00:14.00 bitrate=4044.5kbits/s speed=1.15x    frame=  492 fps= 39 q=29.0 size=    7168kB time=00:00:14.63 bitrate=4012.8kbits/s speed=1.15x    frame=  500 fps= 35 q=-1.0 Lsize=    8417kB time=00:00:16.56 bitrate=4162.3kbits/s speed=1.18x    
video:8413kB audio:0kB subtitle:0kB other streams:0kB global headers:0kB muxing overhead: 0.054534%
[libx264 @ 0x5588816fab40] frame I:4     Avg QP:23.74  size: 74342
[libx264 @ 0x5588816fab40] frame P:401   Avg QP:27.00  size: 19490
[libx264 @ 0x5588816fab40] frame B:95    Avg QP:30.18  size:  5275
[libx264 @ 0x5588816fab40] consecutive B-frames: 68.0% 18.4%  4.8%  8.8%
[libx264 @ 0x5588816fab40] mb I  I16..4:  1.2% 54.7% 44.1%
[libx264 @ 0x5588816fab40] mb P  I16..4:  0.5%  3.5%  1.1%  P16..4: 48.2% 15.5%  6.6%  0.0%  0.0%    skip:24.7%
[libx264 @ 0x5588816fab40] mb B  I16..4:  0.1%  0.5%  0.2%  B16..8: 61.2%  5.1%  1.1%  direct: 0.7%  skip:31.0%  L0:58.9% L1:37.2% BI: 4.0%
[libx264 @ 0x5588816fab40] 8x8 transform intra:66.4% inter:76.7%
[libx264 @ 0x5588816fab40] coded y,uvDC,uvAC intra: 89.2% 42.5% 16.3% inter: 26.4% 4.3% 0.2%
[libx264 @ 0x5588816fab40] i16 v,h,dc,p:  2% 89%  4%  5%
[libx264 @ 0x5588816fab40] i8 v,h,dc,ddl,ddr,vr,hd,vl,hu:  5% 51% 10%  3%  4%  2% 11%  3% 11%
[libx264 @ 0x5588816fab40] i4 v,h,dc,ddl,ddr,vr,hd,vl,hu:  7% 55%  9%  3%  4%  2% 10%  2%  8%
[libx264 @ 0x5588816fab40] i8c dc,h,v,p: 68% 18% 10%  4%
[libx264 @ 0x5588816fab40] Weighted P-Frames: Y:0.0% UV:0.0%
[libx264 @ 0x5588816fab40] ref P L0: 68.2% 25.3%  4.9%  1.6%
[libx264 @ 0x5588816fab40] ref B L0: 97.4%  2.4%  0.2%
[libx264 @ 0x5588816fab40] ref B L1: 99.5%  0.5%
[libx264 @ 0x5588816fab40] kb/s:4134.75
	Command being timed: "/home/aleksandr/bin_release/ffmpeg -i ../.././Samples/29_VP8_1280x720_30_068fps.webm -c:v libx264 -f mov /home/aleksandr/Debug-release_tests/Release/Samples/29_VP8_1280x720_30_068fps.webm_tc/output_tc10.mov"
	User time (seconds): 54.38
	System time (seconds): 0.17
	Percent of CPU this job got: 385%
	Elapsed (wall clock) time (h:mm:ss or m:ss): 0:14.15
	Average shared text size (kbytes): 0
	Average unshared data size (kbytes): 0
	Average stack size (kbytes): 0
	Average total size (kbytes): 0
	Maximum resident set size (kbytes): 262844
	Average resident set size (kbytes): 0
	Major (requiring I/O) page faults: 1
	Minor (reclaiming a frame) page faults: 20860
	Voluntary context switches: 7580
	Involuntary context switches: 4760
	Swaps: 0
	File system inputs: 8
	File system outputs: 16856
	Socket messages sent: 0
	Socket messages received: 0
	Signals delivered: 0
	Page size (bytes): 4096
	Exit status: 0
